<svg width="52" height="48" viewBox="0 0 52 48" fill="none" xmlns="http://www.w3.org/2000/svg">
<path d="M11.4025 35.9164C12.5169 35.9164 13.4202 35.0201 13.4202 33.9145C13.4202 32.8088 12.5169 31.9125 11.4025 31.9125C10.2881 31.9125 9.38477 32.8088 9.38477 33.9145C9.38477 35.0201 10.2881 35.9164 11.4025 35.9164Z" fill="#F9E585"/>
<path d="M42.3549 35.0408C34.1576 43.1739 20.9417 43.2908 12.5993 35.3914C12.2442 35.5862 11.8363 35.698 11.4027 35.698C10.0353 35.698 8.92744 34.5988 8.92744 33.2421C8.92744 32.6527 9.13741 32.1124 9.48565 31.689C7.57546 28.8063 6.45222 25.5612 6.11422 22.2517C5.964 22.3025 5.80183 22.3313 5.63284 22.3313C4.81004 22.3313 4.14258 21.6691 4.14258 20.8527C4.14258 20.0364 4.81004 19.3741 5.63284 19.3741C5.76428 19.3741 5.89231 19.3928 6.01351 19.425C6.17909 14.2456 8.25486 9.11544 12.2391 5.16236C13.7891 3.62448 15.5167 2.37454 17.3586 1.41083C13.5621 2.47447 9.97898 4.48827 6.99165 7.45223C-2.33055 16.7015 -2.33055 31.6975 6.99165 40.9484C16.3138 50.1994 31.4281 50.1977 40.752 40.9484C44.8608 36.8717 47.1585 31.6788 47.645 26.3522C46.6549 29.5278 44.8933 32.524 42.3549 35.0408Z" fill="#F9E585"/>
<path d="M5.63293 22.3923C6.29098 22.3923 6.82445 21.863 6.82445 21.2101C6.82445 20.5572 6.29098 20.0279 5.63293 20.0279C4.97487 20.0279 4.44141 20.5572 4.44141 21.2101C4.44141 21.863 4.97487 22.3923 5.63293 22.3923Z" fill="#F9E585"/>
<path d="M47.6431 5.38934C47.8599 6.81035 48.9848 7.9265 50.417 8.1416C48.9848 8.35669 47.8599 9.47284 47.6431 10.8938C47.4263 9.47284 46.3014 8.35669 44.8691 8.1416C46.3014 7.92819 47.4263 6.81205 47.6431 5.38934Z" fill="#F9E585"/>
<path d="M18.5738 7.34216C18.6848 8.06876 19.2601 8.63953 19.9924 8.74962C19.2601 8.85971 18.6848 9.43049 18.5738 10.1571C18.4629 9.43049 17.8876 8.85971 17.1553 8.74962C17.8876 8.64123 18.4629 8.07045 18.5738 7.34216Z" fill="#F9E585"/>
<path d="M4.19395 0C4.30491 0.726595 4.88018 1.29737 5.61251 1.40746C4.88018 1.51755 4.30491 2.08832 4.19395 2.81492C4.08299 2.08832 3.50771 1.51755 2.77539 1.40746C3.50771 1.29737 4.08128 0.726595 4.19395 0Z" fill="#F9E585"/>
<path d="M48.7926 38.5925C49.0059 39.9898 50.1104 41.0856 51.5187 41.2974C50.1104 41.5091 49.0059 42.6049 48.7926 44.0022C48.5792 42.6049 47.4747 41.5091 46.0664 41.2974C47.4747 41.0856 48.5792 39.9898 48.7926 38.5925Z" fill="#F9E585"/>
<path d="M47.6432 16.9048C47.7661 17.711 48.4046 18.3444 49.2171 18.4664C48.4046 18.5883 47.7661 19.2218 47.6432 20.028C47.5203 19.2218 46.8819 18.5883 46.0693 18.4664C46.8819 18.3427 47.5203 17.711 47.6432 16.9048Z" fill="#F9E585"/>
<path d="M43.7256 19.198L40.88 10.9971C40.8219 10.8295 40.6358 10.7397 40.4668 10.7973L39.4409 11.1479C39.3351 11.1835 39.2617 11.2681 39.2327 11.3681L32.0016 13.8392L31.4366 12.2115L33.8059 11.4019C33.8862 11.5205 34.0398 11.5781 34.1815 11.529L35.1818 11.1868C35.3508 11.1293 35.4413 10.9446 35.3833 10.777L34.5451 8.36176C34.4871 8.19409 34.301 8.10432 34.132 8.16191L33.1334 8.50403C32.9644 8.56162 32.8739 8.74623 32.9319 8.91391L28.3178 10.4907C28.2034 10.5297 28.1266 10.6279 28.1061 10.738C28.0925 10.7414 28.0771 10.7431 28.0634 10.7482L25.9877 11.4578C25.8187 11.5154 25.7282 11.7 25.7862 11.8677L26.3342 13.4445C26.3922 13.6122 26.5783 13.702 26.7473 13.6444L28.8231 12.9347C28.8367 12.9297 28.8504 12.9229 28.8623 12.9161C28.9477 12.9906 29.0689 13.0211 29.1833 12.9822L29.3113 12.9381L29.8763 14.5658L25.6992 15.9935C25.2758 16.1375 25.0488 16.5999 25.1956 17.0199L25.3185 17.3756L23.7548 17.9091L14.8423 20.9544C14.4583 21.0865 14.2517 21.5048 14.3848 21.8876L14.7109 22.8293L14.7143 22.8412L14.2602 22.997L8.08584 25.1056C7.99366 25.0633 7.88441 25.0531 7.78198 25.0887L6.45048 25.5443L6.03226 24.3367C5.98958 24.213 5.88204 24.13 5.75913 24.108C5.75913 24.103 5.75742 24.0996 5.75571 24.0945C5.78303 24.0742 5.79839 24.0555 5.79156 24.0403C5.78644 24.0267 5.76596 24.02 5.73523 24.02L5.7028 23.9268C5.7267 23.9082 5.74035 23.8895 5.73523 23.876C5.73011 23.8624 5.70792 23.8557 5.67719 23.8557L5.41943 23.1104C5.35456 22.9224 5.15313 22.8361 4.97047 22.9174L4.90902 22.9445C4.72807 23.0258 4.4208 23.1308 4.2262 23.1782L4.1545 23.1951C3.9599 23.2426 3.85577 23.4339 3.92064 23.6219L4.18011 24.3689C4.15962 24.3858 4.14938 24.4027 4.1528 24.4146C4.15792 24.4264 4.17669 24.4332 4.2023 24.4332L4.23644 24.5332C4.21596 24.5501 4.20401 24.567 4.20913 24.5789C4.21425 24.5924 4.23473 24.5992 4.26375 24.5992C4.26546 24.6043 4.26717 24.6094 4.27058 24.6127C4.18864 24.7042 4.1545 24.8363 4.19718 24.96L4.61711 26.1676C4.61711 26.1693 4.61882 26.1693 4.61882 26.1709C4.42422 26.2522 4.32179 26.4724 4.39178 26.674L5.24701 29.1383C5.32042 29.3483 5.55258 29.4618 5.76596 29.389L8.90351 28.3169C9.00764 28.2813 9.08617 28.2085 9.13226 28.117L15.3067 26.0067L15.7607 25.8508L16.0919 26.8044C16.225 27.1855 16.6467 27.3904 17.0325 27.2583L21.4964 25.7323V27.7004H19.7091C19.4838 27.7004 19.3011 27.8833 19.3011 28.1052V28.6929C19.3011 28.9164 19.4838 29.0977 19.7091 29.0977H21.8208L16.6552 42.5032C16.6484 42.5202 16.645 42.5371 16.6416 42.5524L14.5897 47.8756H16.1141L21.0219 35.1475L21.0133 35.1441L23.0618 29.8276V34.4175V38.8991V47.8739H24.4855V34.4243H24.4837V29.9005L29.5349 43.013C29.5469 43.0435 29.5639 43.0689 29.5844 43.091L31.4314 47.8824H32.9558L27.8535 34.6479L27.8364 34.6547L25.6975 29.1027H27.8347C28.06 29.1027 28.2427 28.9198 28.2427 28.6979V28.1102C28.2427 27.8867 28.0583 27.7054 27.8347 27.7054H26.1498V24.1436L26.9795 23.8608L27.4216 23.71L27.5052 23.6812L27.5018 23.6728L27.6281 24.0369C27.7732 24.4569 28.2393 24.6822 28.6626 24.5365L42.1978 19.9111C42.2814 19.972 42.3924 19.9941 42.4982 19.9585L43.5242 19.6079C43.6932 19.5503 43.7836 19.3657 43.7256 19.198Z" fill="#5499D1"/>
</svg>
