<svg width="70" height="70" viewBox="0 0 70 70" fill="none" xmlns="http://www.w3.org/2000/svg">
<rect width="70" height="70" rx="10" fill="#F1DA09" fill-opacity="0.5"/>
<path d="M33.9473 17H56.7761V53.4224H33.9473V17Z" fill="#0867D6"/>
<path d="M33.9473 17H56.7761V53.4224H33.9473V17Z" fill="#0696E7"/>
<path d="M33.9473 17H56.7761V53.4224H33.9473V17Z" fill="#208EE2"/>
<path d="M51.5917 35.3809C51.5917 41.4097 46.6957 46.3057 40.6669 46.3057H27.3613C21.3325 46.3057 16.4365 41.4097 16.4365 35.3809C16.4365 29.3521 21.3325 24.4561 27.3613 24.4561H40.6669C46.7149 24.4561 51.5917 29.3521 51.5917 35.3809Z" stroke="#0867D6" stroke-width="0.85" stroke-miterlimit="10" stroke-linecap="round"/>
<path d="M51.5917 35.3809C51.5917 41.4097 46.6957 46.3057 40.6669 46.3057H27.3613C21.3325 46.3057 16.4365 41.4097 16.4365 35.3809C16.4365 29.3521 21.3325 24.4561 27.3613 24.4561H40.6669C46.7149 24.4561 51.5917 29.3521 51.5917 35.3809Z" stroke="#0696E7" stroke-width="0.85" stroke-miterlimit="10" stroke-linecap="round"/>
<path d="M51.5917 35.3809C51.5917 41.4097 46.6957 46.3057 40.6669 46.3057H27.3613C21.3325 46.3057 16.4365 41.4097 16.4365 35.3809C16.4365 29.3521 21.3325 24.4561 27.3613 24.4561H40.6669C46.7149 24.4561 51.5917 29.3521 51.5917 35.3809Z" stroke="#208EE2" stroke-width="0.85" stroke-miterlimit="10" stroke-linecap="round"/>
<path d="M55.048 35.3808C55.048 43.3296 49.192 49.7616 41.9728 49.7616H26.0752C18.856 49.7616 13 43.3296 13 35.3808C13 27.432 18.856 21 26.0752 21H41.992C49.192 21 55.048 27.432 55.048 35.3808Z" stroke="#0867D6" stroke-width="0.85" stroke-miterlimit="10" stroke-linecap="round"/>
<path d="M55.048 35.3808C55.048 43.3296 49.192 49.7616 41.9728 49.7616H26.0752C18.856 49.7616 13 43.3296 13 35.3808C13 27.432 18.856 21 26.0752 21H41.992C49.192 21 55.048 27.432 55.048 35.3808Z" stroke="#0696E7" stroke-width="0.85" stroke-miterlimit="10" stroke-linecap="round"/>
<path d="M55.048 35.3808C55.048 43.3296 49.192 49.7616 41.9728 49.7616H26.0752C18.856 49.7616 13 43.3296 13 35.3808C13 27.432 18.856 21 26.0752 21H41.992C49.192 21 55.048 27.432 55.048 35.3808Z" stroke="#208EE2" stroke-width="0.85" stroke-miterlimit="10" stroke-linecap="round"/>
<path d="M19.874 35.3232H23.618M30.434 35.3232H37.6148M44.5844 35.3232H48.3284" stroke="#0867D6" stroke-width="0.85" stroke-miterlimit="10" stroke-linecap="round"/>
<path d="M19.874 35.3232H23.618M30.434 35.3232H37.6148M44.5844 35.3232H48.3284" stroke="#0696E7" stroke-width="0.85" stroke-miterlimit="10" stroke-linecap="round"/>
<path d="M19.874 35.3232H23.618M30.434 35.3232H37.6148M44.5844 35.3232H48.3284" stroke="#208EE2" stroke-width="0.85" stroke-miterlimit="10" stroke-linecap="round"/>
<path d="M27.0166 28.1807V31.9247M27.0166 38.7215V42.4847" stroke="#0867D6" stroke-width="0.85" stroke-miterlimit="10" stroke-linecap="round"/>
<path d="M27.0166 28.1807V31.9247M27.0166 38.7215V42.4847" stroke="#0696E7" stroke-width="0.85" stroke-miterlimit="10" stroke-linecap="round"/>
<path d="M27.0166 28.1807V31.9247M27.0166 38.7215V42.4847" stroke="#208EE2" stroke-width="0.85" stroke-miterlimit="10" stroke-linecap="round"/>
<path d="M41.1855 28.1807V31.9247M41.1855 38.7215V42.4847" stroke="#0867D6" stroke-width="0.85" stroke-miterlimit="10" stroke-linecap="round"/>
<path d="M41.1855 28.1807V31.9247M41.1855 38.7215V42.4847" stroke="#0696E7" stroke-width="0.85" stroke-miterlimit="10" stroke-linecap="round"/>
<path d="M41.1855 28.1807V31.9247M41.1855 38.7215V42.4847" stroke="#208EE2" stroke-width="0.85" stroke-miterlimit="10" stroke-linecap="round"/>
<path d="M34.0049 24.4561H40.6673C46.6961 24.4561 51.5921 29.3521 51.5921 35.3809C51.5921 41.4097 46.6961 46.3057 40.6673 46.3057H33.9473" stroke="white" stroke-width="0.709" stroke-miterlimit="10"/>
<path d="M34.0049 21H41.9729C49.1921 21 55.0481 27.432 55.0481 35.3808C55.0481 43.3296 49.1921 49.7616 41.9729 49.7616H33.9473" stroke="white" stroke-width="0.709" stroke-miterlimit="10"/>
<path d="M34.0244 35.3232H37.6148" stroke="white" stroke-width="0.709" stroke-miterlimit="10"/>
<path d="M35.8486 35.3232H37.615M44.5846 35.3232H48.3286" stroke="white" stroke-width="0.709" stroke-miterlimit="10" stroke-linecap="round"/>
<path d="M41.1855 28.1807V31.9247M41.1855 38.7215V42.4847" stroke="white" stroke-width="0.709" stroke-miterlimit="10" stroke-linecap="round"/>
</svg>
