<svg width="29" height="29" viewBox="0 0 29 29" fill="none" xmlns="http://www.w3.org/2000/svg">
<path d="M1 1H2.74155C3.06958 1 3.23359 1 3.36558 1.06032C3.48189 1.11348 3.58046 1.19897 3.64953 1.30659C3.72791 1.42872 3.75111 1.59109 3.7975 1.91582L4.42857 6.33333M4.42857 6.33333L5.83109 16.6419C6.00907 17.95 6.09807 18.6041 6.4108 19.0965C6.68637 19.5303 7.08144 19.8753 7.54847 20.0898C8.07848 20.3333 8.73859 20.3333 10.0588 20.3333H21.4693C22.7261 20.3333 23.3544 20.3333 23.8679 20.1072C24.3207 19.9078 24.7091 19.5864 24.9897 19.179C25.3079 18.7168 25.4255 18.0995 25.6606 16.865L27.4255 7.59959C27.5082 7.16508 27.5496 6.94782 27.4896 6.778C27.437 6.62903 27.3332 6.50358 27.1967 6.42402C27.0411 6.33333 26.82 6.33333 26.3776 6.33333H4.42857ZM11.6667 26.3333C11.6667 27.0697 11.0697 27.6667 10.3333 27.6667C9.59695 27.6667 9 27.0697 9 26.3333C9 25.597 9.59695 25 10.3333 25C11.0697 25 11.6667 25.597 11.6667 26.3333ZM22.3333 26.3333C22.3333 27.0697 21.7364 27.6667 21 27.6667C20.2636 27.6667 19.6667 27.0697 19.6667 26.3333C19.6667 25.597 20.2636 25 21 25C21.7364 25 22.3333 25.597 22.3333 26.3333Z" stroke="#0867D6" stroke-width="2" stroke-linecap="round" stroke-linejoin="round"/>
<path d="M1 1H2.74155C3.06958 1 3.23359 1 3.36558 1.06032C3.48189 1.11348 3.58046 1.19897 3.64953 1.30659C3.72791 1.42872 3.75111 1.59109 3.7975 1.91582L4.42857 6.33333M4.42857 6.33333L5.83109 16.6419C6.00907 17.95 6.09807 18.6041 6.4108 19.0965C6.68637 19.5303 7.08144 19.8753 7.54847 20.0898C8.07848 20.3333 8.73859 20.3333 10.0588 20.3333H21.4693C22.7261 20.3333 23.3544 20.3333 23.8679 20.1072C24.3207 19.9078 24.7091 19.5864 24.9897 19.179C25.3079 18.7168 25.4255 18.0995 25.6606 16.865L27.4255 7.59959C27.5082 7.16508 27.5496 6.94782 27.4896 6.778C27.437 6.62903 27.3332 6.50358 27.1967 6.42402C27.0411 6.33333 26.82 6.33333 26.3776 6.33333H4.42857ZM11.6667 26.3333C11.6667 27.0697 11.0697 27.6667 10.3333 27.6667C9.59695 27.6667 9 27.0697 9 26.3333C9 25.597 9.59695 25 10.3333 25C11.0697 25 11.6667 25.597 11.6667 26.3333ZM22.3333 26.3333C22.3333 27.0697 21.7364 27.6667 21 27.6667C20.2636 27.6667 19.6667 27.0697 19.6667 26.3333C19.6667 25.597 20.2636 25 21 25C21.7364 25 22.3333 25.597 22.3333 26.3333Z" stroke="#0696E7" stroke-width="2" stroke-linecap="round" stroke-linejoin="round"/>
<path d="M1 1H2.74155C3.06958 1 3.23359 1 3.36558 1.06032C3.48189 1.11348 3.58046 1.19897 3.64953 1.30659C3.72791 1.42872 3.75111 1.59109 3.7975 1.91582L4.42857 6.33333M4.42857 6.33333L5.83109 16.6419C6.00907 17.95 6.09807 18.6041 6.4108 19.0965C6.68637 19.5303 7.08144 19.8753 7.54847 20.0898C8.07848 20.3333 8.73859 20.3333 10.0588 20.3333H21.4693C22.7261 20.3333 23.3544 20.3333 23.8679 20.1072C24.3207 19.9078 24.7091 19.5864 24.9897 19.179C25.3079 18.7168 25.4255 18.0995 25.6606 16.865L27.4255 7.59959C27.5082 7.16508 27.5496 6.94782 27.4896 6.778C27.437 6.62903 27.3332 6.50358 27.1967 6.42402C27.0411 6.33333 26.82 6.33333 26.3776 6.33333H4.42857ZM11.6667 26.3333C11.6667 27.0697 11.0697 27.6667 10.3333 27.6667C9.59695 27.6667 9 27.0697 9 26.3333C9 25.597 9.59695 25 10.3333 25C11.0697 25 11.6667 25.597 11.6667 26.3333ZM22.3333 26.3333C22.3333 27.0697 21.7364 27.6667 21 27.6667C20.2636 27.6667 19.6667 27.0697 19.6667 26.3333C19.6667 25.597 20.2636 25 21 25C21.7364 25 22.3333 25.597 22.3333 26.3333Z" stroke="#208EE2" stroke-width="2" stroke-linecap="round" stroke-linejoin="round"/>
</svg>
